<svg width="227" height="108" viewBox="0 0 227 108" fill="none" xmlns="http://www.w3.org/2000/svg">
<path d="M2.2385 63C1.5985 63 1.2785 62.7653 1.2785 62.296C1.2785 61.912 1.55583 61.656 2.1105 61.528L3.5825 61.272C4.4785 61.1013 5.0545 60.8667 5.3105 60.568C5.60917 60.2693 5.7585 59.672 5.7585 58.776V21.144C5.7585 20.248 5.60917 19.6507 5.3105 19.352C5.0545 19.0533 4.4785 18.8187 3.5825 18.648L2.1105 18.392C1.55583 18.264 1.2785 18.008 1.2785 17.624C1.2785 17.1547 1.5985 16.92 2.2385 16.92H15.2305C17.3638 16.92 19.2625 17.368 20.9265 18.264C22.5905 19.16 23.8918 20.376 24.8305 21.912C25.8118 23.448 26.3025 25.1973 26.3025 27.16C26.3025 29.08 25.7265 30.872 24.5745 32.536C23.4652 34.1573 21.8438 35.5227 19.7105 36.632C19.4545 36.76 19.3265 36.9307 19.3265 37.144C19.3265 37.3573 19.4758 37.5067 19.7745 37.592C22.6758 38.5733 24.9158 40.152 26.4945 42.328C28.0732 44.4613 28.8625 47 28.8625 49.944C28.8625 52.4613 28.2865 54.7227 27.1345 56.728C25.9825 58.6907 24.3825 60.2267 22.3345 61.336C20.3292 62.4453 18.0465 63 15.4865 63H2.2385ZM13.6945 36.696C15.9558 36.696 17.8332 35.8213 19.3265 34.072C20.8625 32.28 21.6305 30.0613 21.6305 27.416C21.6305 24.7707 20.9052 22.6373 19.4545 21.016C18.0038 19.352 16.0838 18.52 13.6945 18.52C11.4332 18.52 10.3025 19.3733 10.3025 21.08V33.176C10.3025 34.4133 10.5585 35.3093 11.0705 35.864C11.6252 36.4187 12.4998 36.696 13.6945 36.696ZM14.6545 61.4C17.4278 61.4 19.6892 60.3547 21.4385 58.264C23.1878 56.1307 24.0625 53.2933 24.0625 49.752C24.0625 46.2107 23.1665 43.416 21.3745 41.368C19.6252 39.32 17.2572 38.296 14.2705 38.296C11.6252 38.296 10.3025 39.3413 10.3025 41.432V56.984C10.3025 59.928 11.7532 61.4 14.6545 61.4ZM43.413 63.576C41.365 63.576 39.5303 62.8933 37.909 61.528C36.2877 60.1627 34.9863 58.2427 34.005 55.768C33.0663 53.2507 32.597 50.3493 32.597 47.064C32.597 43.6933 33.0877 40.728 34.069 38.168C35.0503 35.608 36.3943 33.6027 38.101 32.152C39.8077 30.7013 41.7063 29.976 43.797 29.976C46.3143 29.976 48.341 31.0213 49.877 33.112C51.4557 35.16 52.245 38.5093 52.245 43.16C52.245 44.568 51.7117 45.272 50.645 45.272H38.485C37.6317 45.272 37.205 45.7627 37.205 46.744C37.205 51.2667 37.8663 54.6587 39.189 56.92C40.5117 59.1813 42.197 60.312 44.245 60.312C45.8663 60.312 47.189 59.736 48.213 58.584C49.237 57.432 50.069 55.4907 50.709 52.76C50.837 52.2907 51.1143 52.056 51.541 52.056C52.053 52.056 52.245 52.4827 52.117 53.336C51.4343 57.1333 50.3463 59.8 48.853 61.336C47.3597 62.8293 45.5463 63.576 43.413 63.576ZM38.293 43.672H44.757C46.805 43.672 47.829 42.6053 47.829 40.472C47.829 37.6987 47.4877 35.5227 46.805 33.944C46.1223 32.3653 45.0983 31.576 43.733 31.576C42.069 31.576 40.661 32.536 39.509 34.456C38.3997 36.376 37.6743 39.1067 37.333 42.648C37.2477 43.3307 37.5677 43.672 38.293 43.672ZM66.163 63.576C64.115 63.576 62.2803 62.8933 60.659 61.528C59.0377 60.1627 57.7363 58.2427 56.755 55.768C55.8163 53.2507 55.347 50.3493 55.347 47.064C55.347 43.6933 55.8377 40.728 56.819 38.168C57.8003 35.608 59.1443 33.6027 60.851 32.152C62.5577 30.7013 64.4563 29.976 66.547 29.976C69.0643 29.976 71.091 31.0213 72.627 33.112C74.2057 35.16 74.995 38.5093 74.995 43.16C74.995 44.568 74.4617 45.272 73.395 45.272H61.235C60.3817 45.272 59.955 45.7627 59.955 46.744C59.955 51.2667 60.6163 54.6587 61.939 56.92C63.2617 59.1813 64.947 60.312 66.995 60.312C68.6163 60.312 69.939 59.736 70.963 58.584C71.987 57.432 72.819 55.4907 73.459 52.76C73.587 52.2907 73.8643 52.056 74.291 52.056C74.803 52.056 74.995 52.4827 74.867 53.336C74.1843 57.1333 73.0963 59.8 71.603 61.336C70.1097 62.8293 68.2963 63.576 66.163 63.576ZM61.043 43.672H67.507C69.555 43.672 70.579 42.6053 70.579 40.472C70.579 37.6987 70.2377 35.5227 69.555 33.944C68.8723 32.3653 67.8483 31.576 66.483 31.576C64.819 31.576 63.411 32.536 62.259 34.456C61.1497 36.376 60.4243 39.1067 60.083 42.648C59.9977 43.3307 60.3177 43.672 61.043 43.672ZM77.521 76.76C76.1983 76.76 75.1317 76.3973 74.321 75.672C73.4677 74.9893 73.041 74.072 73.041 72.92C73.041 72.0667 73.297 71.3627 73.809 70.808C74.2783 70.2533 74.897 69.976 75.665 69.976C76.3903 69.976 76.9023 70.1893 77.201 70.616C77.4997 71.0427 77.7343 71.5333 77.905 72.088C78.1183 72.6427 78.353 73.1333 78.609 73.56C78.865 73.9867 79.2703 74.2 79.825 74.2C80.6357 74.2 81.2543 73.7307 81.681 72.792C82.1077 71.8533 82.321 70.5307 82.321 68.824V21.144C82.321 20.248 82.1717 19.6507 81.873 19.352C81.617 19.0533 81.041 18.8187 80.145 18.648L78.673 18.392C78.1183 18.264 77.841 18.008 77.841 17.624C77.841 17.1547 78.161 16.92 78.801 16.92H90.385C91.025 16.92 91.345 17.1547 91.345 17.624C91.345 18.008 91.0677 18.264 90.513 18.392L89.041 18.648C88.145 18.8187 87.5477 19.0533 87.249 19.352C86.993 19.6507 86.865 20.248 86.865 21.144V60.184C86.865 65.304 86.033 69.336 84.369 72.28C82.705 75.2667 80.4223 76.76 77.521 76.76ZM104.305 63.576C102.129 63.576 100.166 62.8507 98.4165 61.4C96.7098 59.9067 95.3445 57.88 94.3205 55.32C93.2965 52.76 92.7845 49.9013 92.7845 46.744C92.7845 43.5867 93.2965 40.7493 94.3205 38.232C95.3445 35.7147 96.7312 33.7093 98.4805 32.216C100.23 30.7227 102.171 29.976 104.305 29.976C106.481 29.976 108.422 30.7227 110.128 32.216C111.878 33.7093 113.265 35.7147 114.289 38.232C115.313 40.7493 115.825 43.5867 115.825 46.744C115.825 49.9013 115.313 52.76 114.289 55.32C113.307 57.88 111.942 59.9067 110.193 61.4C108.443 62.8507 106.481 63.576 104.305 63.576ZM104.305 61.976C108.742 61.976 110.961 56.8987 110.961 46.744C110.961 36.632 108.742 31.576 104.305 31.576C99.8672 31.576 97.6485 36.632 97.6485 46.744C97.6485 56.8987 99.8672 61.976 104.305 61.976ZM122.25 76.12C121.098 76.12 120.18 75.7147 119.498 74.904C118.815 74.136 118.474 73.24 118.474 72.216C118.474 71.4053 118.708 70.7227 119.178 70.168C119.647 69.6133 120.287 69.336 121.098 69.336C121.78 69.336 122.271 69.4853 122.57 69.784C122.868 70.0827 123.082 70.424 123.21 70.808C123.338 71.192 123.466 71.5333 123.594 71.832C123.722 72.1307 123.978 72.28 124.362 72.28C124.831 72.28 125.258 71.9387 125.642 71.256C126.026 70.616 126.559 69.2293 127.242 67.096C127.668 65.816 127.924 64.7067 128.01 63.768C128.138 62.8293 128.116 61.8267 127.946 60.76C127.818 59.6933 127.498 58.392 126.986 56.856L120.01 34.648C119.711 33.624 119.412 32.9627 119.114 32.664C118.858 32.3653 118.431 32.152 117.834 32.024L116.873 31.832C116.319 31.704 116.041 31.4267 116.041 31C116.041 30.5733 116.34 30.36 116.938 30.36H127.498C128.095 30.36 128.394 30.5733 128.394 31C128.394 31.4693 128.116 31.7467 127.562 31.832L126.538 31.96C125.514 32.088 124.852 32.344 124.554 32.728C124.298 33.0693 124.319 33.7093 124.618 34.648L130.25 53.4C130.378 53.8267 130.57 54.04 130.826 54.04C131.124 54.04 131.338 53.8267 131.466 53.4L136.906 35.8C137.247 34.648 137.332 33.7947 137.162 33.24C137.034 32.6427 136.436 32.2587 135.37 32.088L134.026 31.832C133.471 31.704 133.194 31.4267 133.194 31C133.194 30.5733 133.492 30.36 134.09 30.36H142.218C142.815 30.36 143.114 30.5947 143.114 31.064C143.114 31.4907 142.858 31.7893 142.346 31.96L141.77 32.152C141.13 32.3653 140.596 32.7493 140.17 33.304C139.743 33.8587 139.295 34.8187 138.826 36.184L129.29 65.944C128.351 68.9307 127.498 71.1493 126.73 72.6C126.004 74.0507 125.3 74.9893 124.618 75.416C123.935 75.8853 123.146 76.12 122.25 76.12ZM154.401 63.576C153.548 63.576 152.588 63.4907 151.521 63.32C150.497 63.1493 149.516 62.936 148.577 62.68C147.681 62.424 146.977 62.1467 146.465 61.848C146.166 61.6773 145.932 61.5067 145.761 61.336C145.633 61.1227 145.569 60.7813 145.569 60.312L145.249 50.264C145.249 49.4107 145.526 48.984 146.081 48.984C146.55 48.984 146.87 49.368 147.041 50.136L147.617 52.568C149.068 58.6693 151.777 61.72 155.745 61.72C157.878 61.72 159.564 61.016 160.801 59.608C162.081 58.1573 162.721 56.1307 162.721 53.528C162.721 51.0107 162.06 48.664 160.737 46.488C159.457 44.312 157.388 42.1573 154.529 40.024C151.372 37.7627 149.068 35.5867 147.617 33.496C146.166 31.3627 145.441 29.1013 145.441 26.712C145.441 23.5547 146.529 21.0373 148.705 19.16C150.924 17.24 153.74 16.28 157.153 16.28C158.433 16.28 159.67 16.4293 160.865 16.728C162.06 17.0267 163.041 17.4533 163.809 18.008C164.065 18.1787 164.257 18.3707 164.385 18.584C164.556 18.7973 164.641 19.0747 164.641 19.416L164.833 29.08C164.833 29.8053 164.556 30.168 164.001 30.168C163.617 30.168 163.34 29.8693 163.169 29.272L162.721 27.672C161.782 24.3867 160.801 21.9973 159.777 20.504C158.796 18.968 157.366 18.2 155.489 18.2C153.654 18.2 152.182 18.7973 151.073 19.992C150.006 21.1867 149.473 22.872 149.473 25.048C149.473 26.8827 150.07 28.632 151.265 30.296C152.46 31.96 154.55 33.9867 157.537 36.376C160.737 38.9787 163.062 41.496 164.513 43.928C166.006 46.3173 166.753 48.8773 166.753 51.608C166.753 53.9973 166.22 56.088 165.153 57.88C164.086 59.672 162.614 61.08 160.737 62.104C158.902 63.0853 156.79 63.576 154.401 63.576ZM180.976 63.576C178.928 63.576 177.093 62.8933 175.472 61.528C173.85 60.1627 172.549 58.2427 171.568 55.768C170.629 53.2507 170.16 50.3493 170.16 47.064C170.16 43.6933 170.65 40.728 171.632 38.168C172.613 35.608 173.957 33.6027 175.664 32.152C177.37 30.7013 179.269 29.976 181.36 29.976C183.877 29.976 185.904 31.0213 187.44 33.112C189.018 35.16 189.808 38.5093 189.808 43.16C189.808 44.568 189.274 45.272 188.208 45.272H176.048C175.194 45.272 174.768 45.7627 174.768 46.744C174.768 51.2667 175.429 54.6587 176.752 56.92C178.074 59.1813 179.76 60.312 181.808 60.312C183.429 60.312 184.752 59.736 185.776 58.584C186.8 57.432 187.632 55.4907 188.272 52.76C188.4 52.2907 188.677 52.056 189.104 52.056C189.616 52.056 189.808 52.4827 189.68 53.336C188.997 57.1333 187.909 59.8 186.416 61.336C184.922 62.8293 183.109 63.576 180.976 63.576ZM175.856 43.672H182.32C184.368 43.672 185.392 42.6053 185.392 40.472C185.392 37.6987 185.05 35.5227 184.368 33.944C183.685 32.3653 182.661 31.576 181.296 31.576C179.632 31.576 178.224 32.536 177.072 34.456C175.962 36.376 175.237 39.1067 174.896 42.648C174.81 43.3307 175.13 43.672 175.856 43.672ZM192.718 63C192.206 63 191.95 62.7653 191.95 62.296C191.95 61.8693 192.184 61.6133 192.654 61.528L193.549 61.4C194.446 61.272 195.107 61.016 195.534 60.632C195.96 60.248 196.174 59.608 196.174 58.712V22.04C196.174 21.272 196.046 20.7387 195.79 20.44C195.576 20.1413 195.171 19.9707 194.574 19.928L193.102 19.736C192.632 19.6507 192.398 19.3947 192.398 18.968C192.398 18.5413 192.632 18.2853 193.102 18.2C194.296 17.944 195.32 17.6453 196.174 17.304C197.027 16.9627 197.731 16.6213 198.286 16.28C198.968 15.8533 199.48 15.64 199.822 15.64C200.291 15.64 200.526 15.9813 200.526 16.664V58.712C200.526 59.608 200.654 60.248 200.91 60.632C201.208 60.9733 201.806 61.208 202.702 61.336L204.174 61.528C204.643 61.6133 204.878 61.8693 204.878 62.296C204.878 62.7653 204.622 63 204.11 63H192.718ZM210.94 58.712V33.688C210.94 32.664 210.428 32.152 209.404 32.152H207.932C207.42 32.152 207.164 31.9387 207.164 31.512C207.164 31.0853 207.42 30.8507 207.932 30.808C209.937 30.5947 210.94 29.72 210.94 28.184V27.8C210.94 25.5813 211.26 23.512 211.9 21.592C212.583 19.672 213.543 18.1147 214.78 16.92C216.06 15.7253 217.617 15.128 219.452 15.128C221.159 15.128 222.588 15.6187 223.74 16.6C224.892 17.5813 225.468 18.7547 225.468 20.12C225.468 20.9307 225.255 21.5493 224.828 21.976C224.444 22.36 223.911 22.552 223.228 22.552C222.375 22.552 221.756 22.2747 221.372 21.72C221.031 21.1653 220.753 20.5467 220.54 19.864C220.327 19.1387 220.049 18.4987 219.708 17.944C219.409 17.3893 218.855 17.112 218.044 17.112C217.191 17.112 216.508 17.6027 215.996 18.584C215.527 19.5227 215.292 21.3147 215.292 23.96V29.592C215.292 30.104 215.548 30.36 216.06 30.36H221.564C222.204 30.36 222.524 30.6587 222.524 31.256C222.524 31.8533 222.204 32.152 221.564 32.152H216.06C215.548 32.152 215.292 32.408 215.292 32.92V58.712C215.292 59.608 215.42 60.2267 215.676 60.568C215.975 60.9093 216.572 61.1227 217.468 61.208L220.86 61.528C221.329 61.6133 221.564 61.848 221.564 62.232C221.564 62.744 221.244 63 220.604 63H207.292C206.652 63 206.332 62.7653 206.332 62.296C206.332 61.8267 206.609 61.5707 207.164 61.528L208.764 61.4C209.66 61.3147 210.236 61.08 210.492 60.696C210.791 60.2693 210.94 59.608 210.94 58.712Z" fill="#CC9F64"/>
<path d="M159.303 101.216C158.647 101.216 158.015 101.008 157.407 100.592C157.055 100.352 156.735 100.416 156.447 100.784C156.287 100.96 156.167 101.072 156.087 101.12C156.007 101.184 155.927 101.216 155.847 101.216C155.671 101.216 155.607 101.104 155.655 100.88C155.719 100.512 155.767 100.04 155.799 99.464C155.831 98.888 155.847 98.12 155.847 97.16V85.64C155.847 85.352 155.799 85.16 155.703 85.064C155.623 84.952 155.471 84.88 155.247 84.848L154.743 84.776C154.567 84.744 154.479 84.648 154.479 84.488C154.479 84.328 154.567 84.232 154.743 84.2C155.191 84.104 155.567 83.992 155.871 83.864C156.175 83.736 156.431 83.608 156.639 83.48C156.895 83.32 157.087 83.24 157.215 83.24C157.391 83.24 157.479 83.368 157.479 83.624V89.552C157.479 89.68 157.527 89.768 157.623 89.816C157.735 89.848 157.855 89.8 157.983 89.672C158.671 88.968 159.423 88.616 160.239 88.616C160.975 88.616 161.623 88.864 162.183 89.36C162.759 89.84 163.207 90.512 163.527 91.376C163.863 92.24 164.031 93.256 164.031 94.424C164.031 95.752 163.823 96.928 163.407 97.952C162.991 98.976 162.423 99.776 161.703 100.352C160.999 100.928 160.199 101.216 159.303 101.216ZM159.255 100.616C160.151 100.616 160.871 100.088 161.415 99.032C161.975 97.976 162.255 96.552 162.255 94.76C162.255 93.112 162.015 91.856 161.535 90.992C161.055 90.128 160.375 89.696 159.495 89.696C158.951 89.696 158.479 89.92 158.079 90.368C157.679 90.816 157.479 91.44 157.479 92.24V98.288C157.479 99.008 157.639 99.576 157.959 99.992C158.295 100.408 158.727 100.616 159.255 100.616ZM166.805 105.92C166.373 105.92 166.029 105.768 165.773 105.464C165.517 105.176 165.389 104.84 165.389 104.456C165.389 104.152 165.477 103.896 165.653 103.688C165.829 103.48 166.069 103.376 166.373 103.376C166.629 103.376 166.813 103.432 166.925 103.544C167.037 103.656 167.117 103.784 167.165 103.928C167.213 104.072 167.261 104.2 167.309 104.312C167.357 104.424 167.453 104.48 167.597 104.48C167.773 104.48 167.933 104.352 168.077 104.096C168.221 103.856 168.421 103.336 168.677 102.536C168.837 102.056 168.933 101.64 168.965 101.288C169.013 100.936 169.005 100.56 168.941 100.16C168.893 99.76 168.773 99.272 168.581 98.696L165.965 90.368C165.853 89.984 165.741 89.736 165.629 89.624C165.533 89.512 165.373 89.432 165.149 89.384L164.788 89.312C164.58 89.264 164.476 89.16 164.476 89C164.476 88.84 164.588 88.76 164.812 88.76H168.773C168.997 88.76 169.109 88.84 169.109 89C169.109 89.176 169.005 89.28 168.797 89.312L168.413 89.36C168.029 89.408 167.781 89.504 167.669 89.648C167.573 89.776 167.581 90.016 167.693 90.368L169.805 97.4C169.853 97.56 169.925 97.64 170.021 97.64C170.133 97.64 170.213 97.56 170.261 97.4L172.301 90.8C172.429 90.368 172.461 90.048 172.397 89.84C172.349 89.616 172.125 89.472 171.725 89.408L171.221 89.312C171.013 89.264 170.909 89.16 170.909 89C170.909 88.84 171.021 88.76 171.245 88.76H174.293C174.517 88.76 174.629 88.848 174.629 89.024C174.629 89.184 174.533 89.296 174.341 89.36L174.125 89.432C173.885 89.512 173.685 89.656 173.525 89.864C173.365 90.072 173.197 90.432 173.021 90.944L169.445 102.104C169.093 103.224 168.773 104.056 168.485 104.6C168.213 105.144 167.949 105.496 167.693 105.656C167.437 105.832 167.141 105.92 166.805 105.92ZM186.083 100.76C186.019 100.76 185.947 100.736 185.867 100.688C185.787 100.64 185.731 100.536 185.699 100.376L182.075 85.664C182.059 85.552 182.011 85.504 181.931 85.52C181.851 85.52 181.811 85.576 181.811 85.688L181.331 98.936C181.315 99.384 181.387 99.728 181.547 99.968C181.707 100.192 181.987 100.336 182.387 100.4L182.699 100.448C182.907 100.464 183.011 100.56 183.011 100.736C183.011 100.912 182.891 101 182.651 101H179.219C178.979 101 178.859 100.912 178.859 100.736C178.859 100.56 178.963 100.464 179.171 100.448L179.483 100.4C179.899 100.336 180.179 100.192 180.323 99.968C180.483 99.728 180.571 99.384 180.587 98.936L181.067 85.304C181.083 84.968 181.035 84.744 180.923 84.632C180.811 84.52 180.571 84.432 180.203 84.368L179.651 84.272C179.443 84.224 179.339 84.128 179.339 83.984C179.339 83.808 179.459 83.72 179.699 83.72H182.579C183.075 83.72 183.379 83.96 183.491 84.44L186.395 96.416C186.427 96.528 186.475 96.584 186.539 96.584C186.619 96.584 186.667 96.528 186.683 96.416L189.707 84.32C189.803 83.92 190.059 83.72 190.475 83.72H193.307C193.547 83.72 193.667 83.808 193.667 83.984C193.667 84.128 193.563 84.224 193.355 84.272L192.803 84.368C192.467 84.432 192.243 84.52 192.131 84.632C192.019 84.744 191.971 84.968 191.987 85.304L192.467 99.416C192.483 99.752 192.539 99.976 192.635 100.088C192.731 100.2 192.947 100.288 193.283 100.352L193.835 100.448C194.043 100.496 194.147 100.592 194.147 100.736C194.147 100.912 194.027 101 193.787 101H189.443C189.203 101 189.083 100.912 189.083 100.736C189.083 100.592 189.187 100.496 189.395 100.448L189.947 100.352C190.283 100.288 190.507 100.2 190.619 100.088C190.731 99.976 190.779 99.752 190.763 99.416L190.355 85.688C190.355 85.576 190.315 85.52 190.235 85.52C190.171 85.504 190.123 85.544 190.091 85.64L186.443 100.376C186.411 100.536 186.355 100.64 186.275 100.688C186.211 100.736 186.147 100.76 186.083 100.76ZM197.364 101.216C196.692 101.216 196.14 101.008 195.708 100.592C195.276 100.16 195.06 99.592 195.06 98.888C195.06 98.2 195.276 97.552 195.708 96.944C196.14 96.32 196.732 95.76 197.484 95.264C198.236 94.768 199.092 94.368 200.052 94.064C200.26 94 200.364 93.864 200.364 93.656V91.472C200.364 90.704 200.244 90.16 200.004 89.84C199.764 89.504 199.436 89.336 199.02 89.336C198.62 89.336 198.252 89.52 197.916 89.888C197.596 90.24 197.364 90.84 197.22 91.688C197.14 92.2 196.964 92.576 196.692 92.816C196.436 93.04 196.172 93.152 195.9 93.152C195.452 93.152 195.228 92.928 195.228 92.48C195.228 92.016 195.356 91.56 195.612 91.112C195.884 90.648 196.236 90.232 196.668 89.864C197.1 89.48 197.572 89.176 198.084 88.952C198.596 88.728 199.108 88.616 199.62 88.616C201.204 88.616 201.996 89.536 201.996 91.376V98.72C201.996 99.392 202.164 99.728 202.5 99.728C202.708 99.728 202.9 99.592 203.076 99.32C203.252 99.032 203.34 98.552 203.34 97.88C203.34 97.624 203.444 97.496 203.652 97.496C203.844 97.496 203.94 97.632 203.94 97.904C203.94 99.072 203.732 99.92 203.316 100.448C202.916 100.96 202.46 101.216 201.948 101.216C201.564 101.216 201.26 101.064 201.036 100.76C200.812 100.44 200.66 100.064 200.58 99.632C200.564 99.472 200.492 99.392 200.364 99.392C200.252 99.376 200.14 99.448 200.028 99.608C199.644 100.136 199.252 100.536 198.852 100.808C198.452 101.08 197.956 101.216 197.364 101.216ZM198.012 100.112C198.428 100.112 198.812 99.968 199.164 99.68C199.516 99.376 199.804 98.976 200.028 98.48C200.252 97.984 200.364 97.424 200.364 96.8V95.048C200.364 94.744 200.196 94.656 199.86 94.784C198.884 95.136 198.124 95.624 197.58 96.248C197.052 96.856 196.788 97.592 196.788 98.456C196.788 99.56 197.196 100.112 198.012 100.112ZM207.766 90.296C208.422 89.176 209.214 88.616 210.142 88.616C210.67 88.616 211.062 88.776 211.318 89.096C211.574 89.4 211.702 89.744 211.702 90.128C211.702 90.432 211.622 90.68 211.462 90.872C211.318 91.064 211.086 91.16 210.766 91.16C210.51 91.16 210.318 91.104 210.19 90.992C210.078 90.864 209.982 90.72 209.902 90.56C209.838 90.4 209.758 90.264 209.662 90.152C209.566 90.024 209.406 89.96 209.182 89.96C208.894 89.96 208.622 90.136 208.366 90.488C208.11 90.824 207.894 91.28 207.718 91.856C207.558 92.432 207.478 93.088 207.478 93.824V99.392C207.478 99.728 207.526 99.968 207.622 100.112C207.734 100.256 207.958 100.344 208.294 100.376L208.942 100.448C209.118 100.48 209.206 100.568 209.206 100.712C209.206 100.904 209.086 101 208.846 101H204.79C204.55 101 204.43 100.912 204.43 100.736C204.43 100.592 204.534 100.496 204.742 100.448L205.03 100.4C205.366 100.336 205.582 100.24 205.678 100.112C205.79 99.968 205.846 99.728 205.846 99.392V91.328C205.846 91.04 205.798 90.848 205.702 90.752C205.622 90.64 205.47 90.568 205.246 90.536L204.742 90.464C204.534 90.448 204.43 90.36 204.43 90.2C204.43 90.072 204.558 89.984 204.814 89.936C205.31 89.856 205.686 89.728 205.942 89.552C206.214 89.376 206.494 89.16 206.782 88.904C206.926 88.76 207.046 88.688 207.142 88.688C207.286 88.688 207.358 88.784 207.358 88.976V90.272C207.358 90.384 207.406 90.456 207.502 90.488C207.598 90.504 207.686 90.44 207.766 90.296ZM214.447 86.48C214.111 86.48 213.823 86.36 213.583 86.12C213.359 85.88 213.247 85.576 213.247 85.208C213.247 84.84 213.359 84.544 213.583 84.32C213.823 84.08 214.111 83.96 214.447 83.96C214.783 83.96 215.063 84.08 215.287 84.32C215.511 84.544 215.623 84.84 215.623 85.208C215.623 85.576 215.511 85.88 215.287 86.12C215.063 86.36 214.783 86.48 214.447 86.48ZM212.431 101C212.191 101 212.071 100.912 212.071 100.736C212.071 100.592 212.175 100.496 212.383 100.448L212.671 100.4C213.071 100.336 213.327 100.24 213.439 100.112C213.551 99.968 213.607 99.728 213.607 99.392V91.328C213.607 91.04 213.559 90.848 213.463 90.752C213.383 90.64 213.231 90.568 213.007 90.536L212.503 90.464C212.295 90.448 212.191 90.36 212.191 90.2C212.191 90.072 212.319 89.984 212.575 89.936C213.071 89.856 213.471 89.728 213.775 89.552C214.079 89.376 214.375 89.16 214.663 88.904C214.807 88.76 214.927 88.688 215.023 88.688C215.167 88.688 215.239 88.784 215.239 88.976V99.392C215.239 99.728 215.287 99.968 215.383 100.112C215.479 100.256 215.663 100.344 215.935 100.376L216.535 100.448C216.711 100.48 216.799 100.568 216.799 100.712C216.799 100.904 216.679 101 216.439 101H212.431ZM219.935 101.216C219.263 101.216 218.711 101.008 218.279 100.592C217.847 100.16 217.631 99.592 217.631 98.888C217.631 98.2 217.847 97.552 218.279 96.944C218.711 96.32 219.303 95.76 220.055 95.264C220.807 94.768 221.663 94.368 222.623 94.064C222.831 94 222.935 93.864 222.935 93.656V91.472C222.935 90.704 222.815 90.16 222.575 89.84C222.335 89.504 222.007 89.336 221.591 89.336C221.191 89.336 220.823 89.52 220.487 89.888C220.167 90.24 219.935 90.84 219.791 91.688C219.711 92.2 219.535 92.576 219.263 92.816C219.007 93.04 218.743 93.152 218.471 93.152C218.023 93.152 217.799 92.928 217.799 92.48C217.799 92.016 217.927 91.56 218.183 91.112C218.455 90.648 218.807 90.232 219.239 89.864C219.671 89.48 220.143 89.176 220.655 88.952C221.167 88.728 221.679 88.616 222.191 88.616C223.775 88.616 224.567 89.536 224.567 91.376V98.72C224.567 99.392 224.735 99.728 225.071 99.728C225.279 99.728 225.471 99.592 225.647 99.32C225.823 99.032 225.911 98.552 225.911 97.88C225.911 97.624 226.015 97.496 226.223 97.496C226.415 97.496 226.511 97.632 226.511 97.904C226.511 99.072 226.303 99.92 225.887 100.448C225.487 100.96 225.031 101.216 224.519 101.216C224.135 101.216 223.831 101.064 223.607 100.76C223.383 100.44 223.231 100.064 223.151 99.632C223.135 99.472 223.063 99.392 222.935 99.392C222.823 99.376 222.711 99.448 222.599 99.608C222.215 100.136 221.823 100.536 221.423 100.808C221.023 101.08 220.527 101.216 219.935 101.216ZM220.583 100.112C220.999 100.112 221.383 99.968 221.735 99.68C222.087 99.376 222.375 98.976 222.599 98.48C222.823 97.984 222.935 97.424 222.935 96.8V95.048C222.935 94.744 222.767 94.656 222.431 94.784C221.455 95.136 220.695 95.624 220.151 96.248C219.623 96.856 219.359 97.592 219.359 98.456C219.359 99.56 219.767 100.112 220.583 100.112Z" fill="#CC9F64"/>
</svg>
