<svg width="66" height="63" viewBox="0 0 66 63" fill="none" xmlns="http://www.w3.org/2000/svg">
<g filter="url(#filter0_i_42_37)">
<path d="M28.5163 3.08493C30.3504 -0.631301 35.6496 -0.6313 37.4837 3.08493L43.5924 15.4625C44.3207 16.9382 45.7285 17.961 47.357 18.1977L61.0164 20.1825C65.1175 20.7784 66.7551 25.8183 63.7875 28.711L53.9035 38.3455C52.725 39.4942 52.1873 41.1492 52.4655 42.7712L54.7988 56.3754C55.4993 60.4599 51.2122 63.5747 47.544 61.6463L35.3267 55.2232C33.8701 54.4574 32.1299 54.4574 30.6733 55.2232L18.4559 61.6463C14.7878 63.5747 10.5007 60.4599 11.2012 56.3754L13.5345 42.7712C13.8127 41.1492 13.275 39.4942 12.0965 38.3455L2.21249 28.7109C-0.755098 25.8183 0.882453 20.7784 4.98355 20.1825L18.643 18.1977C20.2715 17.961 21.6793 16.9382 22.4076 15.4625L28.5163 3.08493Z" fill="url(#paint0_linear_42_37)"/>
</g>
<defs>
<filter id="filter0_i_42_37" x="0.697021" y="0.29776" width="64.606" height="89.934" filterUnits="userSpaceOnUse" color-interpolation-filters="sRGB">
<feFlood flood-opacity="0" result="BackgroundImageFix"/>
<feBlend mode="normal" in="SourceGraphic" in2="BackgroundImageFix" result="shape"/>
<feColorMatrix in="SourceAlpha" type="matrix" values="0 0 0 0 0 0 0 0 0 0 0 0 0 0 0 0 0 0 127 0" result="hardAlpha"/>
<feOffset dy="28"/>
<feGaussianBlur stdDeviation="17.5"/>
<feComposite in2="hardAlpha" operator="arithmetic" k2="-1" k3="1"/>
<feColorMatrix type="matrix" values="0 0 0 0 1 0 0 0 0 1 0 0 0 0 1 0 0 0 0.3 0"/>
<feBlend mode="normal" in2="shape" result="effect1_innerShadow_42_37"/>
</filter>
<linearGradient id="paint0_linear_42_37" x1="15" y1="-18.4" x2="44.6" y2="103.2" gradientUnits="userSpaceOnUse">
<stop offset="0.0470529" stop-color="#FF6D6C"/>
<stop offset="1" stop-color="#FE9100"/>
</linearGradient>
</defs>
</svg>
